<svg xmlns="http://www.w3.org/2000/svg" viewBox="0 0 256 256"><defs><style>.a{fill:#f2df1a;stroke:#000;stroke-miterlimit:10;stroke-width:6px;}</style></defs><title>js-logo</title><circle class="a" cx="128" cy="125" r="110"/><path d="M49.39,159.74l17.52-10.61c3.39,6,6.46,11.07,13.84,11.07,7.07,0,11.53-2.77,11.53-13.53V73.48h21.53V147c0,22.3-13.07,32.44-32.14,32.44-17.22,0-27.21-8.91-32.28-19.68"/><path d="M125.5,157.43,143,147.28c4.61,7.54,10.61,13.07,21.22,13.07,8.91,0,14.6-4.46,14.6-10.61,0-7.38-5.84-10-15.68-14.3l-5.38-2.3C142.26,126.53,132,118.22,132,100.69c0-16.14,12.3-28.44,31.52-28.44,13.68,0,23.52,4.77,30.59,17.22l-16.76,10.76c-3.69-6.61-7.68-9.22-13.83-9.22-6.31,0-10.3,4-10.3,9.22,0,6.46,4,9.07,13.22,13.07l5.38,2.31c18.3,7.84,28.6,15.84,28.6,33.82,0,19.38-15.22,30-35.67,30-20,0-32.91-9.54-39.21-22"/><circle cx="46.11" cy="52.61" r="19.52"/><circle cx="223.9" cy="72.48" r="19.52"/><circle cx="128" cy="233.48" r="19.52"/></svg>